<svg width="12" height="10" viewBox="0 0 12 10" fill="none" xmlns="http://www.w3.org/2000/svg">
<path fill-rule="evenodd" clip-rule="evenodd" d="M1.75632 3.28816L1.93329 2.75725H1.63632C1.36844 2.75725 1.15147 2.54028 1.15147 2.2724C1.15147 2.00452 1.36844 1.78755 1.63632 1.78755C1.93329 1.78755 2.25644 1.78755 2.25644 1.78755C2.25644 1.78755 2.48772 1.09374 2.63099 0.664647C2.69693 0.466586 2.88214 0.333008 3.09087 0.333008C4.22226 0.333008 7.77766 0.333008 8.90905 0.333008C9.11778 0.333008 9.30299 0.466586 9.36893 0.664647L9.74347 1.78755H10.3636C10.6315 1.78755 10.8484 2.00452 10.8484 2.2724C10.8484 2.54028 10.6315 2.75725 10.3636 2.75725H10.0666L10.2436 3.28816C10.8703 3.4501 11.3333 4.01931 11.3333 4.69664V9.06028C11.3333 9.32816 11.1163 9.54513 10.8484 9.54513C10.5522 9.54513 10.175 9.54513 9.87875 9.54513C9.61087 9.54513 9.3939 9.32816 9.3939 9.06028V8.57543H2.60602V9.06028C2.60602 9.32816 2.38905 9.54513 2.12117 9.54513C1.82493 9.54513 1.44772 9.54513 1.15147 9.54513C0.883596 9.54513 0.666626 9.32816 0.666626 9.06028C0.666626 8.1381 0.666626 6.09834 0.666626 4.69664C0.666626 4.01931 1.12966 3.4501 1.75632 3.28816ZM2.60602 5.18149C2.8739 5.18149 3.09087 5.39846 3.09087 5.66634C3.09087 5.93422 2.8739 6.15119 2.60602 6.15119C2.18299 6.15119 1.63632 6.15119 1.63632 6.15119V7.60574H3.27608C3.27608 7.60574 3.84578 6.46658 4.11172 5.93446C4.1939 5.7701 4.36166 5.66634 4.54541 5.66634C5.2082 5.66634 6.79172 5.66634 7.4545 5.66634C7.63826 5.66634 7.80602 5.7701 7.8882 5.93446C8.15414 6.46658 8.72384 7.60574 8.72384 7.60574H10.3636V6.15119H9.3939C9.12602 6.15119 8.90905 5.93422 8.90905 5.66634C8.90905 5.39846 9.12602 5.18149 9.3939 5.18149C9.81693 5.18149 10.3636 5.18149 10.3636 5.18149V4.69664C10.3636 4.42877 10.1466 4.2118 9.87875 4.2118C8.35099 4.2118 3.64893 4.2118 2.12117 4.2118C1.85329 4.2118 1.63632 4.42877 1.63632 4.69664V5.18149H2.60602ZM7.15487 6.63604H4.84505L4.3602 7.60574H7.63972L7.15487 6.63604ZM3.44044 1.3027L2.7939 3.2421H9.20602L8.55947 1.3027H3.44044Z" fill="#222222"/>
</svg>
